<mxfile host="app.diagrams.net" modified="2023-10-12T17:37:39.423Z" agent="Mozilla/5.0 (Windows NT 10.0; Win64; x64) AppleWebKit/537.36 (KHTML, like Gecko) Chrome/116.0.0.0 Safari/537.36 OPR/102.0.0.0" etag="UuWtuDOCPH70tzbPAVUo" version="22.0.4" type="device">
  <diagram name="PÃ¡gina-1" id="EfH4zPcA5yklE6_d3rMD">
    <mxGraphModel dx="968" dy="551" grid="1" gridSize="10" guides="1" tooltips="1" connect="1" arrows="1" fold="1" page="1" pageScale="1" pageWidth="827" pageHeight="1169" math="0" shadow="0">
      <root>
        <mxCell id="0" />
        <mxCell id="1" parent="0" />
        <mxCell id="GWjPema_j1M5WIAqElDp-13" value="" style="edgeStyle=orthogonalEdgeStyle;rounded=0;orthogonalLoop=1;jettySize=auto;html=1;" edge="1" parent="1" source="GWjPema_j1M5WIAqElDp-10" target="GWjPema_j1M5WIAqElDp-12">
          <mxGeometry relative="1" as="geometry" />
        </mxCell>
        <mxCell id="GWjPema_j1M5WIAqElDp-10" value="&lt;span class=&quot;p&quot; style=&quot;box-sizing: border-box; color: rgb(51, 51, 51); font-family: Menlo, Monaco, Consolas, &amp;quot;Courier New&amp;quot;, monospace; font-size: 13px; font-style: normal; font-variant-ligatures: normal; font-variant-caps: normal; letter-spacing: normal; orphans: 2; text-indent: 0px; text-transform: none; widows: 2; word-spacing: 1px; -webkit-text-stroke-width: 0px; text-decoration-thickness: initial; text-decoration-style: initial; text-decoration-color: initial;&quot;&gt;{&lt;/span&gt;&lt;span style=&quot;color: rgb(51, 51, 51); font-family: Menlo, Monaco, Consolas, &amp;quot;Courier New&amp;quot;, monospace; font-size: 13px; font-style: normal; font-variant-ligatures: normal; font-variant-caps: normal; letter-spacing: normal; orphans: 2; text-indent: 0px; text-transform: none; widows: 2; word-spacing: 1px; -webkit-text-stroke-width: 0px; background-color: rgb(248, 248, 248); text-decoration-thickness: initial; text-decoration-style: initial; text-decoration-color: initial; float: none; display: inline !important;&quot;&gt;&lt;br&gt;&lt;/span&gt;&lt;span class=&quot;hljs-attribute&quot; style=&quot;box-sizing: border-box; color: navy; font-family: Menlo, Monaco, Consolas, &amp;quot;Courier New&amp;quot;, monospace; font-size: 13px; font-style: normal; font-variant-ligatures: normal; font-variant-caps: normal; letter-spacing: normal; orphans: 2; text-indent: 0px; text-transform: none; widows: 2; word-spacing: 1px; -webkit-text-stroke-width: 0px; text-decoration-thickness: initial; text-decoration-style: initial; text-decoration-color: initial;&quot;&gt;&amp;nbsp;login : String,&lt;br&gt;&amp;nbsp;Password : String&lt;br&gt;&lt;/span&gt;&lt;span class=&quot;p&quot; style=&quot;box-sizing: border-box; color: rgb(51, 51, 51); font-family: Menlo, Monaco, Consolas, &amp;quot;Courier New&amp;quot;, monospace; font-size: 13px; font-style: normal; font-variant-ligatures: normal; font-variant-caps: normal; letter-spacing: normal; orphans: 2; text-indent: 0px; text-transform: none; widows: 2; word-spacing: 1px; -webkit-text-stroke-width: 0px; text-decoration-thickness: initial; text-decoration-style: initial; text-decoration-color: initial;&quot;&gt;&lt;span class=&quot;hljs-attribute&quot; style=&quot;box-sizing: border-box; color: navy;&quot;&gt;}&lt;/span&gt;&lt;/span&gt;" style="text;whiteSpace=wrap;html=1;fillColor=#e1d5e7;strokeColor=#9673a6;gradientColor=none;fontStyle=1;align=center;labelBorderColor=default;" vertex="1" parent="1">
          <mxGeometry x="100" y="230" width="140" height="80" as="geometry" />
        </mxCell>
        <mxCell id="GWjPema_j1M5WIAqElDp-17" value="" style="edgeStyle=orthogonalEdgeStyle;rounded=0;orthogonalLoop=1;jettySize=auto;html=1;" edge="1" parent="1" source="GWjPema_j1M5WIAqElDp-12" target="GWjPema_j1M5WIAqElDp-14">
          <mxGeometry relative="1" as="geometry" />
        </mxCell>
        <mxCell id="GWjPema_j1M5WIAqElDp-12" value="&lt;font color=&quot;#0aff1b&quot; style=&quot;font-size: 13px;&quot;&gt;{&lt;br style=&quot;border-color: var(--border-color); font-weight: 400;&quot;&gt;&lt;span style=&quot;font-weight: 400;&quot;&gt;name : String,&lt;/span&gt;&lt;br style=&quot;border-color: var(--border-color); font-weight: 400;&quot;&gt;&lt;span style=&quot;font-weight: 400;&quot;&gt;surname : String,&lt;/span&gt;&lt;br style=&quot;border-color: var(--border-color); font-weight: 400;&quot;&gt;&lt;span style=&quot;font-weight: 400;&quot;&gt;dateOfBirth : String,&lt;/span&gt;&lt;br style=&quot;border-color: var(--border-color); font-weight: 400;&quot;&gt;&lt;span style=&quot;font-weight: 400;&quot;&gt;Comments : String,&lt;/span&gt;&lt;br style=&quot;border-color: var(--border-color); font-weight: 400;&quot;&gt;&lt;span style=&quot;font-weight: 400;&quot;&gt;rol : String&lt;/span&gt;&lt;br style=&quot;border-color: var(--border-color); font-weight: 400;&quot;&gt;&lt;span style=&quot;font-weight: 400;&quot;&gt;}&lt;/span&gt;&lt;/font&gt;" style="text;whiteSpace=wrap;html=1;fillColor=#e1d5e7;strokeColor=#9673a6;gradientColor=none;fontStyle=1;align=center;labelBorderColor=default;" vertex="1" parent="1">
          <mxGeometry x="320" y="210" width="130" height="120" as="geometry" />
        </mxCell>
        <mxCell id="GWjPema_j1M5WIAqElDp-14" value="&lt;font color=&quot;#4517ff&quot; style=&quot;font-size: 13px; font-weight: normal;&quot;&gt;{&lt;br style=&quot;border-color: var(--border-color);&quot;&gt;adress : String,&lt;br&gt;phone : Number,&lt;br&gt;email : String&lt;br style=&quot;border-color: var(--border-color);&quot;&gt;}&lt;/font&gt;" style="text;whiteSpace=wrap;html=1;fillColor=#e1d5e7;strokeColor=#9673a6;gradientColor=none;fontStyle=1;align=center;labelBorderColor=default;" vertex="1" parent="1">
          <mxGeometry x="550" y="225" width="110" height="90" as="geometry" />
        </mxCell>
      </root>
    </mxGraphModel>
  </diagram>
</mxfile>
